# xmcd CD database file
#
# Track frame offsets:
#	150
#	34076
#	54497
#	75902
#	97491
#	116684
#	132043
#	148806
#	166406
#	191423
#	218498
#	242314
#	265386
#	287723
#
# Disc length: 4185 seconds
#
# Revision: 0
# Processed by: cddbd v1.5.2PL0 Copyright (c) Steve Scherf et al.
# Submitted via: CDex 1.51
#
DISCID=c410570e
DTITLE=Cafe del Mar - XV Cd 1
DYEAR=2008
DGENRE=New Age
TTITLE0=Sun is Shining
TTITLE1=Wake up
TTITLE2=Relax
TTITLE3=Avantguard
TTITLE4=Life is a Wonder
TTITLE5=Night Wave in Ibiza
TTITLE6=World
TTITLE7=Smiling Faces
TTITLE8=One Step Away
TTITLE9=Tren Lento a Juliaca
TTITLE10=Stop
TTITLE11=Alright
TTITLE12=What are we Living
TTITLE13=I wil be Waiting
EXTD=YEAR: 2008
EXTT0=
EXTT1=
EXTT2=
EXTT3=
EXTT4=
EXTT5=
EXTT6=
EXTT7=
EXTT8=
EXTT9=
EXTT10=
EXTT11=
EXTT12=
EXTT13=
PLAYORDER=
